<?xml version="1.0" encoding="UTF-8" standalone="no"?>
<svg width="26px" height="28px" viewBox="0 0 26 28" version="1.1" xmlns="http://www.w3.org/2000/svg" xmlns:xlink="http://www.w3.org/1999/xlink">
    <!-- Generator: Sketch 3.8.2 (29753) - http://www.bohemiancoding.com/sketch -->
    <title>Group 2</title>
    <desc>Created with Sketch.</desc>
    <defs>
        <radialGradient cx="50%" cy="50%" fx="50%" fy="50%" r="62.0093979%" id="radialGradient-1">
            <stop stop-color="#329AFF" offset="0%"></stop>
            <stop stop-color="#003F7E" offset="100%"></stop>
        </radialGradient>
    </defs>
    <g id="Speakers" stroke="none" stroke-width="1" fill="none" fill-rule="evenodd">
        <g id="iPad" transform="translate(-20.000000, -75.000000)">
            <g id="Header" transform="translate(0.000000, 64.000000)">
                <g id="Group-2" transform="translate(20.000000, 11.000000)">
                    <g id="Shield">
                        <path d="M25.5095822,4.31174884 C25.5662655,4.31291255 25.6118458,4.3588789 25.6118458,4.41473675 C25.6790476,12.89582 24.3133899,15.5903794 22.732102,18.7102729 C20.8878504,22.3503427 18.3219098,24.6760075 16.4934361,25.9851758 C14.5118591,27.4048961 12.9440115,27.9745298 12.9282337,27.9797665 C12.8458384,27.985585 12.8341511,27.9838394 12.8224639,27.9797665 C12.8066861,27.9745298 11.2388385,27.405478 9.25726148,25.9851758 C7.42878775,24.6760075 4.86284714,22.3503427 3.01859559,18.7102729 C1.43730766,15.5903794 0.0716499027,12.89582 0.138851718,4.41473675 C0.138851718,4.3588789 0.184432079,4.3134944 0.24111535,4.31174884 C0.31883571,4.31058514 8.08093754,4.12904713 12.7897395,0.0810986927 C12.8084391,0.0653886728 12.8931719,0.0560790315 12.8931719,0.0560790315 C17.66976,4.12904713 25.4318618,4.31058514 25.5095822,4.31174884 Z" id="Shape" fill="#FFFFFF"></path>
                        <path d="M5.99141656,7.37149538 L5.99670319,7.36467725 L6.00304715,7.3583836 C6.00991976,7.35261441 6.01626371,7.34527182 6.02366499,7.33792922 C5.98930191,7.34160052 5.94436558,7.34841864 5.88515535,7.36153042 C4.83417376,7.59282222 2.88922344,8.62340812 2.86966291,8.63337307 L2.4736945,8.84368602 L2.69150356,8.45452839 C3.60661881,6.8139825 5.14502747,5.28882026 5.78048012,4.6945944 C5.69113611,4.71452431 5.60232077,4.73445421 5.51562007,4.7528107 C3.23919819,5.24109339 1.46712059,5.2772819 1.44914605,5.2772819 C1.39839443,5.27833084 1.35768739,5.31976407 1.35715873,5.3701133 C1.32226699,9.76990215 1.71664941,12.4426074 2.32989823,14.4550033 C3.41418557,10.6095805 5.96445476,7.40453706 5.99141656,7.37149538 Z M24.3085242,5.2772819 C24.238212,5.27623296 17.2159845,5.11259794 12.9565485,1.46385185 C12.9396313,1.44969112 12.8635039,1.44129959 12.8635039,1.44129959 C10.994681,3.01209081 8.69605529,3.91995045 6.77278014,4.44651953 L6.72467183,4.501589 C5.61130803,5.77657848 5.19895107,6.46783151 5.04352422,6.72796922 C5.0139191,6.77726951 4.99435858,6.8103112 4.9784987,6.83233899 C4.93091905,6.89842236 4.88651138,6.99072929 4.87329481,7.04422535 C4.91400184,7.04002958 4.99330126,7.02219756 5.13868352,6.95716313 C6.19336574,6.48356564 8.54591506,5.76923588 8.64530367,5.73934102 L9.3859602,5.51486735 L8.76213814,5.97063282 C7.63185714,6.79615048 5.9142318,8.42148671 4.14849815,11.474958 C3.22651028,13.0703994 2.59845891,14.4775556 2.44831869,14.82528 C2.88023617,16.1296398 3.40678429,17.1644215 3.96188019,18.2558461 C5.63139722,21.5364134 7.95222677,23.6332492 9.60535525,24.8127849 C11.3980507,26.0930191 12.8175102,26.6059519 12.8323128,26.6106722 C12.9057969,26.6159169 12.9168988,26.6143435 12.9264148,26.6106722 C12.9412173,26.6059519 14.3596195,26.0930191 16.1517863,24.8127849 C17.8059721,23.6332492 20.1273303,21.5364134 21.79579,18.2558461 C23.2263515,15.4431071 24.4618364,13.014281 24.4010402,5.3701133 C24.4010402,5.31976407 24.3598045,5.27833084 24.3085242,5.2772819 Z" id="Fill-1" fill="url(#radialGradient-1)"></path>
                        <path d="M8.75228224,5.97911836 L9.37610431,5.52335289 L8.63544777,5.74782656 C8.53605917,5.77772142 6.18350984,6.49205119 5.12882762,6.96564868 C4.98344536,7.0306831 4.90414594,7.04851512 4.86343891,7.05271089 C4.87665548,6.99921483 4.92106315,6.9069079 4.9686428,6.84082453 C4.98450268,6.81879674 5.00406321,6.78575506 5.03366832,6.73645476 C5.18909518,6.47631705 5.60145214,5.78506402 6.71481593,4.51007455 L6.76133825,4.45028483 C6.42352274,4.54206729 5.77062422,4.70307994 5.77062422,4.70307994 C5.13517157,5.29730581 3.59676291,6.82246804 2.68164766,8.46301393 L2.4638386,8.85217156 L2.85980701,8.64185861 C2.87936754,8.63189366 4.82431786,7.60130776 5.87529945,7.37001597 C5.93450968,7.35690419 5.97944601,7.35008606 6.01380909,7.34641476 C6.00640782,7.35375736 6.00006386,7.36109996 5.99319125,7.36686914 C5.95459886,7.4130226 3.40432967,10.6180661 2.32004233,14.4634889 C2.32004233,14.4634889 2.39775575,14.7099903 2.43740546,14.8300942 C2.43740546,14.8300942 3.21665438,13.0788849 4.13864225,11.4834435 C5.9043759,8.42997225 7.62200124,6.80463602 8.75228224,5.97911836 Z" id="Fill-4" fill="#F2B81D"></path>
                        <polygon id="Triangle-1" fill="#FFFFFF" points="9.85598694 18.3863546 9.85598694 9.70449452 17.329696 14.0454245"></polygon>
                    </g>
                </g>
            </g>
        </g>
    </g>
</svg>